<svg width="19" height="18" viewBox="0 0 19 18" fill="none" xmlns="http://www.w3.org/2000/svg">
<path d="M16.126 5.95547C16.0216 5.85047 15.8975 5.76721 15.7607 5.71048C15.624 5.65376 15.4774 5.62471 15.3293 5.625H13.0793V5.0625C13.0793 4.01821 12.6645 3.01669 11.9261 2.27827C11.1877 1.53984 10.1861 1.125 9.14185 1.125C8.09756 1.125 7.09604 1.53984 6.35761 2.27827C5.61919 3.01669 5.20435 4.01821 5.20435 5.0625V5.625H2.95435C2.65598 5.625 2.36983 5.74353 2.15885 5.9545C1.94787 6.16548 1.82935 6.45163 1.82935 6.75V14.3438C1.82935 15.7148 2.9895 16.875 4.3606 16.875H13.9231C14.5863 16.8752 15.2233 16.6159 15.6978 16.1525C15.9366 15.9247 16.1267 15.6509 16.2568 15.3476C16.3868 15.0442 16.454 14.7177 16.4543 14.3877V6.75C16.4548 6.60244 16.426 6.45626 16.3696 6.31989C16.3133 6.18352 16.2305 6.05966 16.126 5.95547ZM11.3918 11.8125H9.70435V13.5C9.70435 13.6492 9.64508 13.7923 9.53959 13.8977C9.4341 14.0032 9.29103 14.0625 9.14185 14.0625C8.99266 14.0625 8.84959 14.0032 8.7441 13.8977C8.63861 13.7923 8.57935 13.6492 8.57935 13.5V11.8125H6.89185C6.74266 11.8125 6.59959 11.7532 6.4941 11.6477C6.38861 11.5423 6.32935 11.3992 6.32935 11.25C6.32935 11.1008 6.38861 10.9577 6.4941 10.8523C6.59959 10.7468 6.74266 10.6875 6.89185 10.6875H8.57935V9C8.57935 8.85082 8.63861 8.70774 8.7441 8.60225C8.84959 8.49676 8.99266 8.4375 9.14185 8.4375C9.29103 8.4375 9.4341 8.49676 9.53959 8.60225C9.64508 8.70774 9.70435 8.85082 9.70435 9V10.6875H11.3918C11.541 10.6875 11.6841 10.7468 11.7896 10.8523C11.8951 10.9577 11.9543 11.1008 11.9543 11.25C11.9543 11.3992 11.8951 11.5423 11.7896 11.6477C11.6841 11.7532 11.541 11.8125 11.3918 11.8125ZM11.9543 5.625H6.32935V5.0625C6.32935 4.31658 6.62566 3.60121 7.15311 3.07376C7.68055 2.54632 8.39592 2.25 9.14185 2.25C9.88777 2.25 10.6031 2.54632 11.1306 3.07376C11.658 3.60121 11.9543 4.31658 11.9543 5.0625V5.625Z" fill="white"/>
</svg>
