<svg width="93" height="63" viewBox="0 0 93 63" fill="none" xmlns="http://www.w3.org/2000/svg">
<line x1="27.4706" y1="-4.36647e-09" x2="27.4706" y2="62.7329" stroke="#F9F9F9" stroke-width="0.199786"/>
<line y1="50.2468" x2="92.3013" y2="50.2468" stroke="#F9F9F9" stroke-width="0.199786"/>
<path d="M6.66788 25.5952V7.9391H9.31504V25.5952H6.66788ZM13.4721 25.5952V7.9391H19.8403C21.1556 7.9391 22.2877 8.14721 23.2367 8.56343C24.2023 8.97965 24.9432 9.62896 25.4593 10.5113C25.9754 11.3771 26.2335 12.5009 26.2335 13.8827C26.2335 15.2147 25.9338 16.3301 25.3344 17.2292C24.7517 18.1282 23.9526 18.8108 22.937 19.277C21.9214 19.7265 20.7643 19.9513 19.4657 19.9513H16.1193V25.5952H13.4721ZM16.1193 17.5538H19.3658C20.6311 17.5538 21.6467 17.2625 22.4126 16.6798C23.1784 16.0804 23.5613 15.1231 23.5613 13.8078C23.5613 12.6591 23.245 11.8016 22.6123 11.2356C21.9797 10.6529 21.0224 10.3615 19.7404 10.3615H16.1193V17.5538ZM29.3975 25.5952V7.9391H32.0446V15.7058H40.8852V7.9391H43.5324V25.5952H40.8852V18.1282H32.0446V25.5952H29.3975ZM47.6885 25.5952V7.9391H50.7602L59.6257 21.7244V7.9391H62.2479V25.5952H59.2511L50.3356 11.8849V25.5952H47.6885ZM67.6177 25.8449C67.1183 25.8449 66.702 25.6868 66.3691 25.3705C66.0527 25.0541 65.8946 24.6379 65.8946 24.1218C65.8946 23.6057 66.0611 23.1895 66.394 22.8731C66.727 22.5401 67.1349 22.3737 67.6177 22.3737C68.1005 22.3737 68.5001 22.5401 68.8164 22.8731C69.1494 23.1895 69.3159 23.6057 69.3159 24.1218C69.3159 24.6379 69.1494 25.0541 68.8164 25.3705C68.5001 25.6868 68.1005 25.8449 67.6177 25.8449ZM13.136 50.795C11.9872 50.795 10.905 50.6285 9.88943 50.2955C8.87385 49.9626 8.01643 49.4215 7.31718 48.6723C6.61793 47.9231 6.15176 46.9325 5.91868 45.7005H8.64077C8.8572 46.3997 9.20683 46.9491 9.68964 47.3487C10.1725 47.7316 10.7302 47.998 11.3629 48.1478C12.0122 48.2977 12.6615 48.3726 13.3108 48.3726C13.9268 48.3726 14.5012 48.2893 15.0339 48.1229C15.5833 47.9564 16.0329 47.6817 16.3825 47.2987C16.7321 46.9158 16.9069 46.4164 16.9069 45.8003C16.9069 45.3342 16.8154 44.9513 16.6322 44.6516C16.4491 44.3519 16.191 44.1105 15.858 43.9273C15.5417 43.7276 15.1588 43.5694 14.7093 43.4529C14.1932 43.2864 13.6354 43.1449 13.0361 43.0283C12.4534 42.9118 11.8706 42.7786 11.2879 42.6287C10.7219 42.4789 10.1891 42.2874 9.68964 42.0544C9.27342 41.8879 8.86553 41.6881 8.46595 41.455C8.08303 41.2053 7.75005 40.9139 7.46702 40.5809C7.18399 40.2313 6.95091 39.8234 6.76777 39.3572C6.60128 38.8911 6.51804 38.3583 6.51804 37.7589C6.51804 36.9598 6.6429 36.2772 6.89264 35.7111C7.15902 35.1451 7.50032 34.6706 7.91654 34.2877C8.34941 33.9047 8.84055 33.6051 9.38996 33.3886C9.95603 33.1555 10.5471 32.989 11.1631 32.8892C11.7791 32.7893 12.3784 32.7393 12.9611 32.7393C14.0267 32.7393 15.009 32.9058 15.908 33.2388C16.807 33.5718 17.5479 34.1045 18.1306 34.8371C18.73 35.553 19.0546 36.502 19.1046 37.684H16.5323C16.4657 37.0514 16.2493 36.5519 15.883 36.1856C15.5334 35.8027 15.0922 35.5363 14.5594 35.3865C14.0267 35.22 13.4606 35.1367 12.8613 35.1367C12.4284 35.1367 11.9955 35.1784 11.5626 35.2616C11.1298 35.3282 10.7302 35.4614 10.3639 35.6612C10.0143 35.8443 9.73127 36.0941 9.51483 36.4104C9.31504 36.7267 9.21515 37.118 9.21515 37.5841C9.21515 37.9837 9.2984 38.3417 9.46488 38.658C9.63137 38.9577 9.86446 39.2157 10.1641 39.4322C10.4805 39.6319 10.8301 39.8068 11.213 39.9566C11.9123 40.223 12.6781 40.4311 13.5106 40.5809C14.343 40.7141 15.1255 40.9056 15.858 41.1553C16.3908 41.3218 16.8903 41.5299 17.3564 41.7796C17.8226 42.0127 18.2222 42.3041 18.5552 42.6537C18.8881 42.9867 19.1462 43.3863 19.3293 43.8524C19.5125 44.3019 19.604 44.8264 19.604 45.4257C19.604 46.408 19.4292 47.2488 19.0796 47.948C18.73 48.6306 18.2555 49.1801 17.6561 49.5963C17.0568 50.0125 16.3658 50.3205 15.5833 50.5203C14.8008 50.7034 13.985 50.795 13.136 50.795ZM26.6092 50.5952V35.3615H21.0152V32.9391H34.8255V35.3615H29.2564V50.5952H26.6092ZM44.693 50.795C42.8783 50.795 41.3383 50.4121 40.073 49.6462C38.8243 48.8637 37.8753 47.7899 37.226 46.4247C36.5767 45.0595 36.2521 43.5111 36.2521 41.7796C36.2521 40.0315 36.5767 38.4748 37.226 37.1096C37.8753 35.7444 38.8326 34.6789 40.0979 33.9131C41.3633 33.1306 42.9033 32.7393 44.718 32.7393C46.5494 32.7393 48.0894 33.1222 49.3381 33.8881C50.5867 34.6539 51.5357 35.7195 52.185 37.0847C52.8343 38.4499 53.159 40.0065 53.159 41.7547C53.159 43.4862 52.8343 45.0345 52.185 46.3997C51.5357 47.7649 50.5784 48.8388 49.3131 49.6213C48.0644 50.4038 46.5244 50.795 44.693 50.795ZM44.718 48.3726C46.0499 48.3726 47.1404 48.0646 47.9895 47.4486C48.8386 46.8326 49.4629 46.0251 49.8625 45.0262C50.2621 44.0272 50.4619 42.9451 50.4619 41.7796C50.4619 40.8973 50.3453 40.0565 50.1122 39.2573C49.8958 38.4582 49.5545 37.7506 49.0883 37.1346C48.6222 36.5186 48.0228 36.0358 47.2902 35.6862C46.5577 35.3365 45.7003 35.1617 44.718 35.1617C43.4027 35.1617 42.3122 35.4697 41.4465 36.0857C40.5974 36.7017 39.9647 37.5092 39.5485 38.5081C39.1323 39.5071 38.9242 40.5976 38.9242 41.7796C38.9242 42.9451 39.124 44.0272 39.5236 45.0262C39.9398 46.0251 40.5724 46.8326 41.4215 47.4486C42.2873 48.0646 43.3861 48.3726 44.718 48.3726ZM56.3218 50.5952V32.9391H63.1145C64.0635 32.9391 64.9293 33.039 65.7118 33.2388C66.4942 33.4219 67.1769 33.7299 67.7596 34.1628C68.3423 34.579 68.7918 35.1451 69.1081 35.861C69.4244 36.5769 69.5826 37.4593 69.5826 38.5081C69.5826 39.4571 69.4161 40.2729 69.0831 40.9555C68.7502 41.6381 68.2923 42.2042 67.7096 42.6537C67.1269 43.1032 66.4693 43.4445 65.7367 43.6776L69.5077 50.5952H66.5858L63.0896 44.1022H58.969V50.5952H56.3218ZM58.969 41.7297H62.5651C63.1645 41.7297 63.7222 41.6881 64.2383 41.6048C64.7711 41.5049 65.2373 41.3384 65.6368 41.1054C66.0364 40.8556 66.3444 40.5227 66.5608 40.1064C66.7939 39.6736 66.9105 39.1242 66.9105 38.4582C66.9271 37.6923 66.7773 37.0847 66.461 36.6351C66.1613 36.169 65.7118 35.8443 65.1124 35.6612C64.513 35.4614 63.7888 35.3615 62.9397 35.3615H58.969V41.7297ZM73.0032 50.5952V32.9391H85.1652V35.3615H75.6503V40.6558H84.0663V43.0533H75.6503V48.1728H85.1652V50.5952H73.0032Z" fill="#F9F9F9"/>
<line x1="71.2237" y1="-4.36647e-09" x2="71.2237" y2="62.7329" stroke="#F9F9F9" stroke-width="0.199786"/>
<line y1="25.2732" x2="92.3013" y2="25.2732" stroke="#F9F9F9" stroke-width="0.199786"/>
</svg>
