<svg width="50" height="60" viewBox="0 0 50 60" fill="none" xmlns="http://www.w3.org/2000/svg">
<path d="M36.9325 0.0299958C36.805 -0.112504 32.2113 0.0862459 28.2138 4.425C24.2163 8.76 24.8312 13.7325 24.9212 13.86C25.0112 13.9875 30.6213 14.1862 34.2025 9.1425C37.7838 4.09875 37.06 0.176246 36.9325 0.0299958ZM49.36 44.0287C49.18 43.6687 40.6413 39.4012 41.4363 31.1962C42.2313 22.9875 47.7175 20.7375 47.8037 20.4937C47.89 20.25 45.565 17.5312 43.1012 16.155C41.2923 15.1847 39.2902 14.6288 37.24 14.5275C36.835 14.5162 35.4287 14.1712 32.5375 14.9625C30.6325 15.4837 26.3387 17.1712 25.1575 17.2387C23.9725 17.3062 20.4475 15.2812 16.6562 14.745C14.23 14.2762 11.6575 15.2362 9.81625 15.975C7.97875 16.71 4.48375 18.8025 2.03875 24.3637C-0.40625 29.9212 0.8725 38.7262 1.7875 41.4637C2.7025 44.1975 4.13125 48.6787 6.56125 51.9487C8.72125 55.6387 11.5863 58.2 12.7825 59.07C13.9788 59.94 17.3538 60.5175 19.6938 59.3212C21.5763 58.1662 24.9737 57.5025 26.3162 57.5512C27.655 57.6 30.295 58.1287 32.9988 59.5725C35.14 60.3112 37.165 60.0037 39.1937 59.1787C41.2225 58.35 44.1587 55.2075 47.5863 48.8362C48.8875 45.8737 49.48 44.2725 49.36 44.0287Z" fill="#F9F9F9"/>
<path d="M36.9325 0.0299958C36.805 -0.112504 32.2113 0.0862459 28.2138 4.425C24.2163 8.76 24.8312 13.7325 24.9212 13.86C25.0112 13.9875 30.6213 14.1862 34.2025 9.1425C37.7838 4.09875 37.06 0.176246 36.9325 0.0299958ZM49.36 44.0287C49.18 43.6687 40.6413 39.4012 41.4363 31.1962C42.2313 22.9875 47.7175 20.7375 47.8037 20.4937C47.89 20.25 45.565 17.5312 43.1012 16.155C41.2923 15.1847 39.2902 14.6288 37.24 14.5275C36.835 14.5162 35.4287 14.1712 32.5375 14.9625C30.6325 15.4837 26.3387 17.1712 25.1575 17.2387C23.9725 17.3062 20.4475 15.2812 16.6562 14.745C14.23 14.2762 11.6575 15.2362 9.81625 15.975C7.97875 16.71 4.48375 18.8025 2.03875 24.3637C-0.40625 29.9212 0.8725 38.7262 1.7875 41.4637C2.7025 44.1975 4.13125 48.6787 6.56125 51.9487C8.72125 55.6387 11.5863 58.2 12.7825 59.07C13.9788 59.94 17.3538 60.5175 19.6938 59.3212C21.5763 58.1662 24.9737 57.5025 26.3162 57.5512C27.655 57.6 30.295 58.1287 32.9988 59.5725C35.14 60.3112 37.165 60.0037 39.1937 59.1787C41.2225 58.35 44.1587 55.2075 47.5863 48.8362C48.8875 45.8737 49.48 44.2725 49.36 44.0287Z" fill="#F9F9F9"/>
</svg>

